# xmcd
#
# Track frame offsets:
#	150
#	10862
#	21505
#	31943
#	42361
#	56017
#	65830
#	76919
#	86095
#	99217
#	109115
#	119584
#	130947
#	141904
#	154598
#	166256
#	189499
#
# Disc length: 2533 seconds
#
# Revision: 1
# Processed by: cddbd v1.5.2PL0 Copyright (c) Steve Scherf et al.
# Submitted via: audiograbber 1.83.01
#
DISCID=e209e311
DTITLE=James Bryan - The First of May
DYEAR=1986
DGENRE=Country
TTITLE0=Julianne Flanigan
TTITLE1=Chicken in the Snowbank
TTITLE2=First of May
TTITLE3=Swedish Waltz
TTITLE4=Cat in the Hooper/Moll Roe's Jig/Moll Roe in the Morning
TTITLE5=American Hornpipe
TTITLE6=Hosses in the Canebreak
TTITLE7=Flandery's Dream
TTITLE8=Willow Creek
TTITLE9=Mountain Hornpipe
TTITLE10=Foxhunter's Reel
TTITLE11=Red Lion/Thunder Hornpipe
TTITLE12=Queen's Polka
TTITLE13=Shipping Port
TTITLE14=Grey Eagle
TTITLE15=Star of Bethlehem
TTITLE16=Data Track
EXTD=
EXTT0=
EXTT1=
EXTT2=
EXTT3=
EXTT4=
EXTT5=
EXTT6=
EXTT7=
EXTT8=
EXTT9=
EXTT10=
EXTT11=
EXTT12=
EXTT13=
EXTT14=
EXTT15=
EXTT16=
PLAYORDER=
